:SAMPLES-PER-SECOND 30
:FULLY-SPECIFIED
:DEGREES
19
root  2.8546 40.9746 -0.0828569 -150.316 -87.6065 146.138
RightUpLeg  3.12855 -8.89915 -5.04045
RightLeg  6.19564 -12.638 3.26063
RightFoot  -3.86872 0.140226 -2.62225
RightToes  0.00048216 0.542163 -0.142577
Spine  3.29967 0.802324 -0.556394
Spine1  4.10683 0.94716 0.148038
HEad  5.97816 -10.9441 -0.612733
LeftShoulder1  1.25947 -3.28955 -11.3002
LeftArm  -19.5292 15.8444 -10.0528
LeftForeArm  8.05881 -1.7836 -0.386673
LeftHand  -0.25398 0.0180481 5.50724
RightShoulder  0.90434 1.74084 9.96128
RightArm  -20.9643 -3.13194 5.2241
RightForeArm  5.68169 0.784566 2.26912
RightHand  -1.48115 5.31599 -16.3335
LeftUpLeg  5.3052 4.79613 1.63636
LeftLeg  2.04505 15.291 -3.8749
LeftFoot  -3.15191 -0.121756 1.96641
LeftToes  1.06245e-005 4.65855e-005 -8.18504e-006
20
root  2.83586 40.9746 -0.0650957 -151.831 -87.5201 147.651
RightUpLeg  3.15851 -8.92155 -5.07725
RightLeg  6.17951 -12.5091 3.29021
RightFoot  -3.87555 0.138592 -2.59682
RightToes  0.00048216 0.542163 -0.142577
Spine  3.24551 0.820066 -0.444929
Spine1  4.24533 0.988921 0.0442693
HEad  6.13386 -10.995 -0.609335
LeftShoulder1  1.26964 -3.32435 -11.361
LeftArm  -19.4083 15.8629 -9.90791
LeftForeArm  8.01421 -1.71971 -0.412811
LeftHand  -0.25398 0.0180481 5.50724
RightShoulder  0.895604 1.75688 9.71793
RightArm  -20.807 -3.22221 5.28177
RightForeArm  5.59235 0.841508 2.32496
RightHand  -1.50469 5.40422 -16.4558
LeftUpLeg  5.34838 4.80537 1.62252
LeftLeg  2.05031 15.3833 -3.88261
LeftFoot  -3.20365 -0.121405 1.97996
LeftToes  1.06245e-005 4.65855e-005 -8.18504e-006
21
root  2.81951 40.9745 -0.0469821 -152.888 -87.4414 148.693
RightUpLeg  3.192 -8.93834 -5.11869
RightLeg  6.17938 -12.4019 3.30166
RightFoot  -3.88139 0.136462 -2.56365
RightToes  0.00048216 0.542163 -0.142577
Spine  3.25173 0.81827 -0.437213
Spine1  4.35714 0.982747 0.0610441
HEad  6.21365 -11.025 -0.650316
LeftShoulder1  1.26011 -3.24831 -11.4348
LeftArm  -19.3001 15.8483 -9.83112
LeftForeArm  7.90469 -1.63328 -0.442143
LeftHand  -0.25398 0.0180481 5.50724
RightShoulder  0.890032 1.77767 9.52556
RightArm  -20.6936 -3.17025 5.27629
RightForeArm  5.76967 0.80323 2.34994
RightHand  -1.49768 5.41014 -16.3733
LeftUpLeg  5.40185 4.79435 1.58678
LeftLeg  2.04367 15.4982 -3.8788
LeftFoot  -3.24127 -0.123859 2.03444
LeftToes  1.06245e-005 4.65855e-005 -8.18504e-006
22
root  2.80243 40.9744 -0.029546 -153.857 -87.3764 149.682
RightUpLeg  3.18941 -8.94108 -5.14142
RightLeg  6.17409 -12.2971 3.30812
RightFoot  -3.88199 0.136897 -2.57043
RightToes  0.00048216 0.542163 -0.142577
Spine  3.23318 0.802744 -0.511645
Spine1  4.4673 0.943017 0.157141
HEad  6.24225 -11.0287 -0.698038
LeftShoulder1  1.24443 -3.13788 -11.5141
LeftArm  -19.1894 15.8767 -9.75627
LeftForeArm  7.73895 -1.59498 -0.479277
LeftHand  -0.25398 0.0180481 5.50724
RightShoulder  0.884534 1.75566 9.48778
RightArm  -20.662 -2.94959 5.1856
RightForeArm  5.95564 0.746554 2.36257
RightHand  -1.49237 5.42994 -16.2891
LeftUpLeg  5.42796 4.77433 1.5494
LeftLeg  2.01047 15.6062 -3.8713
LeftFoot  -3.26282 -0.126003 2.08103
LeftToes  1.06245e-005 4.65855e-005 -8.18504e-006
23
root  2.78043 40.9741 -0.00997411 -155.087 -87.3195 150.962
RightUpLeg  3.18177 -8.94854 -5.15663
RightLeg  6.13036 -12.1884 3.34328
RightFoot  -3.86631 0.136939 -2.57107
RightToes  0.00048216 0.542163 -0.142577
Spine  3.13874 0.773894 -0.521434
Spine1  4.63376 0.916217 0.131846
HEad  6.32067 -11.0255 -0.668448
LeftShoulder1  1.23448 -3.08327 -11.5177
LeftArm  -19.0688 16.01 -9.66126
LeftForeArm  7.60871 -1.68333 -0.528038
LeftHand  -0.25398 0.0180481 5.50724
RightShoulder  0.884483 1.71323 9.63882
RightArm  -20.704 -2.70923 5.05478
RightForeArm  5.86531 0.791089 2.38571
RightHand  -1.51542 5.51537 -16.4088
LeftUpLeg  5.43909 4.7684 1.53526
LeftLeg  1.96567 15.6765 -3.87294
LeftFoot  -3.29561 -0.122294 2.03691
LeftToes  1.06245e-005 4.65855e-005 -8.18504e-006
24
root  2.75482 40.9736 0.0140836 -156.405 -87.2638 152.325
RightUpLeg  3.19903 -8.97562 -5.18663
RightLeg  6.06582 -12.0889 3.40479
RightFoot  -3.84306 0.134202 -2.52845
RightToes  0.00048216 0.542163 -0.142577
Spine  3.02243 0.73208 -0.42959
Spine1  4.83462 0.910978 -0.0454111
HEad  6.49198 -10.9951 -0.586138
LeftShoulder1  1.22261 -3.045 -11.4379
LeftArm  -19.0334 16.1891 -9.61846
LeftForeArm  7.64724 -1.8792 -0.551989
LeftHand  -0.25398 0.0180481 5.50724
RightShoulder  0.896205 1.71974 9.86502
RightArm  -20.867 -2.618 4.98016
RightForeArm  5.56893 0.94039 2.38459
RightHand  -1.54285 5.58031 -16.6017
LeftUpLeg  5.45449 4.77138 1.52901
LeftLeg  1.94064 15.7474 -3.87408
LeftFoot  -3.35544 -0.116467 1.96363
LeftToes  1.06245e-005 4.65855e-005 -8.18504e-006
25
root  2.72844 40.973 0.0393495 -157.393 -87.2056 153.356
RightUpLeg  3.2027 -9.01055 -5.22897
RightLeg  6.03715 -11.9805 3.45139
RightFoot  -3.84863 0.132688 -2.50488
RightToes  0.00048216 0.542163 -0.142577
Spine  2.96003 0.700486 -0.384557
Spine1  4.94771 0.900472 -0.147053
HEad  6.76676 -10.9622 -0.571994
LeftShoulder1  1.21085 -2.98481 -11.4279
LeftArm  -19.1956 16.3301 -9.63451
LeftForeArm  7.84552 -2.0902 -0.497168
LeftHand  -0.25398 0.0180481 5.50724
RightShoulder  0.915571 1.78326 10.0437
RightArm  -21.1887 -2.72225 5.01136
RightForeArm  5.2501 1.14887 2.32757
RightHand  -1.5395 5.52876 -16.6408
LeftUpLeg  5.45531 4.76458 1.50106
LeftLeg  1.94701 15.8522 -3.86754
LeftFoot  -3.43194 -0.116443 1.98778
LeftToes  1.06245e-005 4.65855e-005 -8.18504e-006
26
root  2.70036 40.9712 0.0607336 -158.093 -87.1465 154.128
RightUpLeg  3.14672 -9.03661 -5.25994
RightLeg  6.06776 -11.8557 3.46401
RightFoot  -3.89101 0.133605 -2.51916
RightToes  0.00048216 0.542163 -0.142577
Spine  2.94055 0.702035 -0.47613
Spine1  4.92305 0.881957 -0.054863
HEad  7.17489 -11.025 -0.629893
LeftShoulder1  1.21829 -2.97973 -11.5698
LeftArm  -19.6036 16.4895 -9.68718
LeftForeArm  8.04104 -2.33314 -0.342118
LeftHand  -0.25398 0.0180481 5.50724
RightShoulder  0.929837 1.80323 10.2709
RightArm  -21.7058 -2.93715 5.15825
RightForeArm  4.82331 1.47528 2.22778
RightHand  -1.52792 5.42965 -16.6643
LeftUpLeg  5.41033 4.76158 1.47141
LeftLeg  1.99134 15.9326 -3.86987
LeftFoot  -3.53169 -0.118524 2.05527
LeftToes  1.06245e-005 4.65855e-005 -8.18504e-006
27
root  2.66924 40.9673 0.0803256 -159.062 -87.0883 155.191
RightUpLeg  3.05217 -9.05284 -5.26551
RightLeg  6.13897 -11.7604 3.46385
RightFoot  -3.93223 0.130933 -2.47756
RightToes  0.00048216 0.542163 -0.142577
Spine  2.89443 0.713744 -0.590242
Spine1  4.89374 0.873138 0.0497309
HEad  7.72595 -11.1997 -0.642123
LeftShoulder1  1.24373 -3.0602 -11.745
LeftArm  -20.3336 16.8098 -9.92944
LeftForeArm  8.26524 -2.83089 -0.0914889
LeftHand  -0.25398 0.0180481 5.50724
RightShoulder  0.934867 1.7013 10.7611
RightArm  -22.5635 -3.20293 5.57339
RightForeArm  3.85272 2.11556 2.11193
RightHand  -1.58347 5.52037 -17.1094
LeftUpLeg  5.32024 4.7847 1.48074
LeftLeg  2.10547 15.9558 -3.87656
LeftFoot  -3.69204 -0.113317 2.0259
LeftToes  1.06245e-005 4.65855e-005 -8.18504e-006
28
root  2.6363 40.9607 0.108463 -160.549 -87.0223 156.736
RightUpLeg  2.98612 -9.06558 -5.26785
RightLeg  6.23811 -11.6851 3.46184
RightFoot  -3.97097 0.123809 -2.36667
RightToes  0.00048216 0.542163 -0.142577
Spine  2.82089 0.682766 -0.606497
Spine1  4.99941 0.854067 0.00933094
HEad  8.42842 -11.3546 -0.633182
LeftShoulder1  1.26373 -3.09845 -11.9586
LeftArm  -21.535 17.3329 -10.5801
LeftForeArm  8.8611 -3.90366 0.241436
LeftHand  -0.25398 0.0180481 5.50724
RightShoulder  0.956219 1.61194 11.5691
RightArm  -23.7998 -3.71164 6.51028
RightForeArm  1.70751 3.39924 2.07418
RightHand  -1.75428 5.9595 -18.1864
LeftUpLeg  5.23469 4.80121 1.49764
LeftLeg  2.30457 16.019 -3.8363
LeftFoot  -3.9279 -0.102851 1.95349
LeftToes  1.06245e-005 4.65855e-005 -8.18504e-006
29
root  2.60093 40.9507 0.153923 -162.047 -86.9346 158.206
RightUpLeg  2.99699 -9.09084 -5.32334
RightLeg  6.37885 -11.5128 3.44528
RightFoot  -4.07308 0.117376 -2.2845
RightToes  0.00048216 0.542163 -0.142577
Spine  2.80207 0.598677 -0.565087
Spine1  5.2093 0.787793 -0.0637248
HEad  9.35887 -11.3822 -0.808147
LeftShoulder1  1.28442 -3.00939 -12.5956
LeftArm  -23.2607 17.9409 -11.6172
LeftForeArm  9.93441 -5.74347 0.599504
LeftHand  -0.25398 0.0180481 5.50724
RightShoulder  1.04334 1.80021 12.6473
RightArm  -25.0249 -4.83822 7.96406
RightForeArm  -1.75678 5.67854 2.31646
RightHand  -2.00679 6.60153 -19.648
LeftUpLeg  5.23207 4.76052 1.44484
LeftLeg  2.53866 16.183 -3.7273
LeftFoot  -4.21025 -0.0964185 1.95535
LeftToes  1.06245e-005 4.65855e-005 -8.18504e-006
30
root  2.55958 40.9359 0.213892 -163.193 -86.8254 159.234
RightUpLeg  3.06309 -9.14877 -5.45746
RightLeg  6.6211 -11.2235 3.41019
RightFoot  -4.27582 0.106443 -2.1924
RightToes  0.00048216 0.542163 -0.142577
Spine  2.84746 0.517522 -0.532181
Spine1  5.48336 0.698652 -0.0223216
HEad  10.5621 -11.3325 -1.2385
LeftShoulder1  1.35033 -2.90751 -14.0603
LeftArm  -25.3344 18.3939 -12.8673
LeftForeArm  10.9405 -8.15287 0.885423
LeftHand  -0.25398 0.0180481 5.50724
RightShoulder  1.21824 2.30612 14.0775
RightArm  -25.7047 -6.67096 9.64849
RightForeArm  -5.21725 8.91393 2.91313
RightHand  -2.24683 7.13093 -21.024
LeftUpLeg  5.35237 4.71812 1.35323
LeftLeg  2.75746 16.3126 -3.62981
LeftFoot  -4.53219 -0.0862137 1.90847
LeftToes  1.06245e-005 4.65855e-005 -8.18504e-006
31
root  2.51243 40.9138 0.273311 -164.767 -86.6932 160.649
RightUpLeg  3.06732 -9.22426 -5.57984
RightLeg  7.11386 -10.9615 3.32093
RightFoot  -4.57854 0.0840485 -1.94639
RightToes  0.00048216 0.542163 -0.142577
Spine  2.83132 0.502289 -0.473154
Spine1  5.9581 0.65949 0.0752436
HEad  11.9094 -11.3108 -1.74297
LeftShoulder1  1.49221 -2.94467 -16.3198
LeftArm  -27.5358 18.3866 -14.3159
LeftForeArm  11.3054 -10.4579 1.03015
LeftHand  -0.25398 0.0180481 5.50724
RightShoulder  1.44361 2.86327 15.9544
RightArm  -25.6002 -8.76642 11.4671
RightForeArm  -6.44777 12.378 3.59021
RightHand  -2.39483 7.41344 -21.8802
LeftUpLeg  5.54599 4.85942 1.40718
LeftLeg  3.01261 16.2236 -3.65883
LeftFoot  -4.96333 -0.0594892 1.6034
LeftToes  1.06245e-005 4.65855e-005 -8.18504e-006
32
root  2.4663 40.8782 0.313987 -167.871 -86.467 163.591
RightUpLeg  2.82672 -9.45993 -5.54499
RightLeg  8.10791 -10.4901 3.02303
RightFoot  -5.07964 0.052465 -1.58918
RightToes  0.00048216 0.542163 -0.142577
Spine  2.7025 0.564791 -0.360955
Spine1  6.72547 0.702162 0.0808075
HEad  13.209 -11.3179 -2.1645
LeftShoulder1  1.7167 -3.1743 -19.0889
LeftArm  -29.5582 17.7303 -15.9559
LeftForeArm  10.988 -11.8464 1.02414
LeftHand  -0.25398 0.0180481 5.50724
RightShoulder  1.68176 3.30315 18.1662
RightArm  -24.6496 -10.6016 13.6209
RightForeArm  -4.66493 15.1103 4.01349
RightHand  -2.45125 7.61548 -22.043
LeftUpLeg  5.71627 5.33993 1.75915
LeftLeg  3.46108 15.8982 -3.83063
LeftFoot  -5.60987 -0.0179946 1.03224
LeftToes  1.06245e-005 4.65855e-005 -8.18504e-006
33
root  2.42939 40.8195 0.327245 -171.97 -85.9876 167.512
RightUpLeg  2.14812 -10.5889 -5.34534
RightLeg  9.9267 -8.70332 2.30587
RightFoot  -5.88867 0.0145936 -1.1398
RightToes  0.00048216 0.542163 -0.142577
Spine  2.66948 0.670016 -0.257393
Spine1  7.56797 0.79926 -0.0676735
HEad  14.3787 -11.2219 -2.53075
LeftShoulder1  2.06045 -3.66944 -22.301
LeftArm  -30.2253 16.536 -17.45
LeftForeArm  9.50536 -11.8658 0.987293
LeftHand  -0.25398 0.0180481 5.50724
RightShoulder  1.97079 3.81151 20.562
RightArm  -22.7289 -12.1138 16.1364
RightForeArm  -1.28835 16.7297 4.20284
RightHand  -2.4361 7.83474 -21.5676
LeftUpLeg  5.7988 6.07956 2.32215
LeftLeg  4.25479 15.5428 -4.03613
LeftFoot  -6.51475 0.0273419 0.274331
LeftToes  1.06245e-005 4.65855e-005 -8.18504e-006
